<svg width="1200" height="720" viewBox="0 0 1200 720" fill="none" xmlns="http://www.w3.org/2000/svg" role="img" aria-labelledby="title desc">
  <title id="title">Innovex services: recruitment, websites and SEO</title>
  <desc id="desc">A professional Innovex branded visual showing healthcare recruitment, website development and SEO growth services.</desc>
  <defs>
    <linearGradient id="stage" x1="0" y1="0" x2="1200" y2="720" gradientUnits="userSpaceOnUse">
      <stop stop-color="#063F4F"/>
      <stop offset=".58" stop-color="#0B5F75"/>
      <stop offset="1" stop-color="#CDEFEA"/>
    </linearGradient>
    <linearGradient id="gold" x1="0" y1="0" x2="1" y2="1">
      <stop stop-color="#F8C247"/>
      <stop offset="1" stop-color="#E59F1D"/>
    </linearGradient>
    <linearGradient id="mint" x1="0" y1="0" x2="1" y2="1">
      <stop stop-color="#F6FFFD"/>
      <stop offset="1" stop-color="#DFF6F2"/>
    </linearGradient>
    <filter id="shadow" x="-15%" y="-18%" width="130%" height="136%">
      <feDropShadow dx="0" dy="24" stdDeviation="32" flood-color="#022B36" flood-opacity=".28"/>
    </filter>
    <filter id="smallShadow" x="-25%" y="-25%" width="150%" height="150%">
      <feDropShadow dx="0" dy="14" stdDeviation="18" flood-color="#022B36" flood-opacity=".18"/>
    </filter>
  </defs>

  <rect width="1200" height="720" rx="46" fill="url(#stage)"/>
  <circle cx="1030" cy="128" r="190" fill="#FFFFFF" opacity=".16"/>
  <circle cx="154" cy="614" r="260" fill="#022B36" opacity=".22"/>
  <path d="M112 310C256 170 421 182 560 300C702 420 869 421 1064 256" stroke="#DFF6F2" stroke-width="3" stroke-linecap="round" opacity=".22"/>
  <path d="M156 490C350 404 490 426 624 502C774 587 924 570 1054 476" stroke="#F4B942" stroke-width="3" stroke-linecap="round" opacity=".28"/>

  <g filter="url(#shadow)">
    <rect x="80" y="112" width="1040" height="496" rx="44" fill="#074453" opacity=".86"/>
    <rect x="102" y="136" width="996" height="448" rx="34" fill="#0B5F75" opacity=".32"/>
  </g>

  <g filter="url(#smallShadow)">
    <rect x="158" y="218" width="292" height="252" rx="22" fill="url(#mint)"/>
    <rect x="158" y="218" width="292" height="14" rx="7" fill="url(#gold)"/>
    <circle cx="216" cy="300" r="32" fill="#DFF6F2"/>
    <path d="M216 291a19 19 0 1 0 0-38 19 19 0 0 0 0 38zM170 365c14-38 78-38 92 0" stroke="#0B5F75" stroke-width="15" stroke-linecap="round"/>
    <text x="284" y="296" fill="#063F4F" font-family="Inter, Arial, sans-serif" font-size="24" font-weight="900">Healthcare</text>
    <text x="284" y="326" fill="#063F4F" font-family="Inter, Arial, sans-serif" font-size="24" font-weight="900">Recruitment</text>
    <rect x="188" y="386" width="96" height="46" rx="16" fill="#DFF6F2"/>
    <rect x="304" y="386" width="96" height="46" rx="16" fill="#FFF4D7"/>
    <text x="216" y="412" fill="#0B5F75" font-family="Inter, Arial, sans-serif" font-size="18" font-weight="900">128+</text>
    <text x="200" y="428" fill="#58707A" font-family="Inter, Arial, sans-serif" font-size="12" font-weight="800">Placed</text>
    <text x="330" y="412" fill="#A86E07" font-family="Inter, Arial, sans-serif" font-size="18" font-weight="900">24/7</text>
    <text x="318" y="428" fill="#7A641E" font-family="Inter, Arial, sans-serif" font-size="12" font-weight="800">Support</text>
  </g>

  <g filter="url(#shadow)">
    <rect x="460" y="160" width="316" height="392" rx="24" fill="#FFFFFF"/>
    <rect x="460" y="160" width="316" height="62" rx="24" fill="url(#gold)"/>
    <circle cx="492" cy="191" r="8" fill="#D89610"/>
    <circle cx="520" cy="191" r="8" fill="#D89610"/>
    <circle cx="548" cy="191" r="8" fill="#D89610"/>
    <rect x="576" y="181" width="154" height="20" rx="10" fill="#FFF4D7"/>
    <text x="600" y="196" fill="#0B5F75" font-family="Inter, Arial, sans-serif" font-size="12" font-weight="900">innovexresourcegroup.co.uk</text>
    <rect x="502" y="262" width="210" height="18" rx="9" fill="#DFF6F2"/>
    <rect x="502" y="300" width="160" height="14" rx="7" fill="#EAF9F7"/>
    <rect x="502" y="340" width="86" height="34" rx="17" fill="url(#gold)"/>
    <rect x="606" y="340" width="66" height="34" rx="17" fill="#063F4F"/>
    <text x="522" y="362" fill="#063F4F" font-family="Inter, Arial, sans-serif" font-size="14" font-weight="900">Website</text>
    <text x="628" y="362" fill="#FFFFFF" font-family="Inter, Arial, sans-serif" font-size="14" font-weight="900">SEO</text>
    <text x="504" y="422" fill="#063F4F" font-family="Inter, Arial, sans-serif" font-size="18" font-weight="900">Search ranking</text>
    <rect x="506" y="470" width="28" height="54" rx="8" fill="#0B5F75"/>
    <rect x="548" y="444" width="28" height="80" rx="8" fill="#0B5F75"/>
    <rect x="590" y="414" width="28" height="110" rx="8" fill="#F4B942"/>
    <rect x="632" y="382" width="28" height="142" rx="8" fill="#F4B942"/>
    <path d="M504 442C544 424 566 410 602 382C624 365 646 346 680 310" stroke="#063F4F" stroke-width="7" stroke-linecap="round"/>
  </g>

  <g filter="url(#smallShadow)">
    <rect x="806" y="240" width="256" height="236" rx="22" fill="#F8FEFD"/>
    <rect x="806" y="240" width="256" height="13" rx="6.5" fill="#5E80D7"/>
    <text x="844" y="304" fill="#063F4F" font-family="Inter, Arial, sans-serif" font-size="25" font-weight="900">SEO Growth</text>
    <circle cx="874" cy="374" r="44" fill="#E7F0FF" stroke="#5E80D7" stroke-width="4"/>
    <text x="848" y="366" fill="#063F4F" font-family="Inter, Arial, sans-serif" font-size="15" font-weight="900">Visibility</text>
    <text x="858" y="388" fill="#0B5F75" font-family="Inter, Arial, sans-serif" font-size="22" font-weight="950">4.2x</text>
    <rect x="938" y="336" width="86" height="76" rx="16" fill="#E9F7D8"/>
    <text x="964" y="368" fill="#456B13" font-family="Inter, Arial, sans-serif" font-size="16" font-weight="900">ROI</text>
    <text x="958" y="394" fill="#456B13" font-family="Inter, Arial, sans-serif" font-size="24" font-weight="950">+3x</text>
    <path d="M860 444H1010" stroke="#DFF6F2" stroke-width="12" stroke-linecap="round"/>
  </g>

  <g opacity=".9">
    <circle cx="520" cy="392" r="8" fill="#F4B942"/>
    <circle cx="780" cy="392" r="8" fill="#F4B942"/>
    <circle cx="220" cy="180" r="8" fill="#F4B942"/>
    <circle cx="1022" cy="188" r="7" fill="#DFF6F2"/>
    <path d="M450 344H478" stroke="#F4B942" stroke-width="8" stroke-linecap="round"/>
    <path d="M776 344H806" stroke="#F4B942" stroke-width="8" stroke-linecap="round"/>
  </g>
</svg>
